<?xml version="1.0" encoding="UTF-8"?>
<!-- Generator: Adobe Illustrator 16.0.0, SVG Export Plug-In . SVG Version: 6.00 Build 0)  -->
<!DOCTYPE svg PUBLIC "-//W3C//DTD SVG 1.1//EN" "http://www.w3.org/Graphics/SVG/1.1/DTD/svg11.dtd">
<svg version="1.1" id="Layer_1" xmlns="http://www.w3.org/2000/svg" xmlns:xlink="http://www.w3.org/1999/xlink" x="0px" y="0px" width="580px" height="344px" viewBox="0 0 580 344" enable-background="new 0 0 580 344" xml:space="preserve">
<g>
	<title>background</title>
	<rect id="canvas_background" x="-1" y="-1" fill="none" width="582" height="346"/>
	<g id="canvasGrid" display="none">
		<rect x="0" display="inline" fill="none" width="580" height="344"/>
	</g>
</g>
<g>
	<title>Layer 1</title>
	<g id="svg_18">
		<g id="svg_5" transform="matrix(0.8609597099456032,0,0,0.8609597099456032,-7296.359650812632,-5470.933535532783) ">
			<g id="svg_6" enable-background="new    ">
				<path id="svg_7" fill="#FF312E" d="M8501.957,6605.665v-39.3c0-13.9,4.101-24.3,12.2-31.4      c8.101-7.1,19.901-10.601,35.501-10.601c14.599,0,25.8,3,33.499,9.101c7.701,6.1,11.601,14.7,11.601,25.899v13.3      c0,0.8-0.4,1.2-1.2,1.2h-23.401c-0.8,0-1.2-0.399-1.2-1.2v-12.6c0-4.401-1.599-8-4.799-10.901      c-3.201-2.9-8.1-4.299-14.601-4.299c-7.499,0-13,2.1-16.599,6.2c-3.601,4.101-5.4,9.5-5.4,16v36.9c0,6.5,1.799,11.899,5.4,16.1      c3.599,4.2,9.1,6.3,16.599,6.3c6.501,0,11.4-1.5,14.601-4.4c3.198-2.899,4.799-6.599,4.799-11v-13.299      c0-0.8,0.4-1.201,1.2-1.201h23.401c0.8,0,1.2,0.401,1.2,1.201v15c0,10.799-3.9,19.2-11.8,25.2c-7.9,6.1-19.4,9.1-34.5,9.1      s-26.6-3.499-34.6-10.6S8501.957,6619.065,8501.957,6605.665L8501.957,6605.665z"/>
			</g>
			<g id="svg_8" enable-background="new    ">
				<path id="svg_9" fill="#011936" d="M8704.258,6562.964v26.9c0,0.899-0.4,1.399-1.2,1.399h-65.899v12.899      c0,6.5,1.8,11.901,5.4,16.1c3.6,4.201,9.099,6.301,16.6,6.301c6.499,0,11.3-1.3,14.399-3.901c3-2.6,4.6-5.899,4.6-9.9v-11.699      c0-0.801,0.4-1.2,1.201-1.2h23.4c0.8,0,1.2,0.399,1.2,1.2v13.299c0,10.6-3.901,18.701-11.6,24.299c-7.7,5.6-19.1,8.4-34.2,8.4      s-26.6-3.5-34.6-10.601c-8.001-7.101-11.901-17.3-11.901-30.7v-39.3c0-13.899,4.101-24.299,12.2-31.399      s19.901-10.601,35.501-10.601c14.599,0,25.8,3.3,33.499,9.9c7.6,6.601,11.4,16.101,11.4,28.6L8704.258,6562.964z       M8678.558,6571.764v-5.8c0-7-1.499-12.3-4.6-15.8c-3-3.5-8-5.3-14.8-5.3c-7.5,0-13,2.1-16.599,6.2c-3.601,4.101-5.4,9.5-5.4,16      v4.701L8678.558,6571.764L8678.558,6571.764z"/>
				<path id="svg_10" fill="#011936" d="M8819.259,6559.463v84.101c0,0.8-0.4,1.2-1.2,1.2h-23.301c-0.799,0-1.2-0.4-1.2-1.2v-79.7      c0-6.4-1.4-11.201-4.2-14.4c-2.799-3.201-7.799-4.8-14.999-4.8c-7.3,0-12.7,2-16.1,6c-3.401,4-5.101,8.8-5.101,14.601v78.3      c0,0.8-0.4,1.2-1.199,1.2h-23.4c-0.801,0-1.201-0.4-1.201-1.2v-115.7c0-0.8,0.4-1.2,1.201-1.2h23.4c0.799,0,1.199,0.4,1.199,1.2      v8.899h1.401c5.599-8.4,16.199-12.6,31.799-12.6c11.7,0,20.1,3,25.2,8.9C8816.76,6538.963,8819.26,6547.763,8819.259,6559.463      L8819.259,6559.463z"/>
				<path id="svg_11" fill="#011936" d="M8844.758,6484.164c0-0.8,0.4-1.2,1.2-1.2h23.4c0.801,0,1.2,0.4,1.2,1.2v23.101      c0,0.8-0.399,1.2-1.2,1.2h-23.4c-0.8,0-1.2-0.4-1.2-1.2V6484.164z M8844.758,6527.864c0-0.8,0.4-1.201,1.2-1.201h23.4      c0.801,0,1.2,0.4,1.2,1.201v115.7c0,0.8-0.399,1.201-1.2,1.201h-23.4c-0.8,0-1.2-0.4-1.2-1.201V6527.864z"/>
				<path id="svg_12" fill="#011936" d="M8930.258,6613.165c0,4.099,0.7,6.898,2,8.5c1.3,1.599,3.7,2.5,7.1,2.5h18.2      c0.8,0,1.2,0.399,1.2,1.2v18.199c-0.299,0.8-0.699,1.201-1.2,1.201h-27.3c-17.099,0-25.7-8.301-25.7-24.8v-72.901h-19.4      c-0.8,0-1.2-0.399-1.2-1.2v-18c-0.2-0.299-0.1-0.6,0.201-0.8c0.299-0.199,0.599-0.399,0.9-0.399h19.399v-30.6      c0-0.8,0.4-1.201,1.2-1.201h23.401c0.798,0,1.2,0.4,1.2,1.201v30.6h27.299c0.5,0,0.901,0.399,1.2,1.2v18c0,0.8-0.4,1.2-1.2,1.2      h-27.299v66.1L8930.258,6613.165z"/>
				<path id="svg_13" fill="#011936" d="M9071.657,6643.564c0,0.8-0.4,1.2-1.199,1.2h-15.701c-6.1,0-10.6-1-13.4-3      c-2.9-2-4.6-5.5-5.299-10.299h-1.3c-1.702,4.099-5.301,7.6-10.602,10.6c-5.299,3-13.099,4.6-23.299,4.6      c-10.3,0-18.1-2.299-23.5-6.799c-5.4-4.501-8.1-11.201-8.1-20.101v-14.5c0-8.9,2.001-15.301,6-19.301c4-4,11.101-6.7,21.4-8.299      l25.7-4c4.5-0.599,7.9-1.4,10.201-2.5c2.299-1,3.4-2.799,3.4-5.499v-8.101c0-4.5-1.401-7.8-4.302-9.799      c-2.898-2-8.099-3-15.799-3s-12.9,1.1-15.799,3.2c-2.902,2.1-4.301,5.3-4.301,9.5v8.899c0,0.801-0.4,1.201-1.201,1.201h-23.399      c-0.799,0-1.2-0.4-1.2-1.201v-9.799c0-10.9,3.6-19,10.9-24.3s18.901-7.899,34.901-7.899c16.399,0,28.099,2.9,35.198,8.6      c7.101,5.7,10.602,14.899,10.602,27.299v58.899c0,2.001,0.299,3.401,0.899,4.102c0.6,0.699,1.899,1.099,4,1.099h4      c0.801,0,1.2,0.4,1.2,1.201v17.999L9071.657,6643.564z M9035.958,6606.664v-17.3c-1.101,1.101-4.001,2-8.601,2.801l-19.4,2.299      c-4.801,0.6-8.099,2-9.9,4.1c-1.8,2.101-2.699,5.1-2.699,9v6.8c0,3.901,1.2,6.7,3.7,8.299c2.5,1.601,6.699,2.5,12.6,2.5      c8.599,0,14.8-1.799,18.6-5.399c3.8-3.601,5.699-8,5.699-13.101L9035.958,6606.664z"/>
				<path id="svg_14" fill="#011936" d="M9089.457,6481.164c0-0.8,0.401-1.201,1.199-1.201h23.401c0.8,0,1.2,0.4,1.2,1.201v162.4      c0,0.8-0.4,1.2-1.2,1.2h-23.401c-0.798,0-1.199-0.4-1.199-1.2V6481.164z"/>
			</g>
			<g id="svg_15">
				<g id="svg_16" enable-background="new    ">
					<path id="svg_17" fill="#FF312E" d="M8549.658,6485.263l-15.9,25.601l-0.601,0.299h-22.099c-0.4,0-0.701-0.2-0.8-0.5       c-0.1-0.3-0.1-0.7,0.099-1l32.301-50.7c0.2-0.2,0.4-0.299,0.499-0.299h13.9c0.101,0,0.301,0.1,0.501,0.299l32.2,50.7       c0.099,0.101,0.2,0.3,0.2,0.5c0,0.7-0.3,1.1-0.901,1.1h-22.3l-0.599-0.3L8549.658,6485.263L8549.658,6485.263z"/>
				</g>
			</g>
		</g>
	</g>
</g>
</svg>